<svg xmlns="http://www.w3.org/2000/svg" version="1.1" xmlns:xlink="http://www.w3.org/1999/xlink" xmlns:svgjs="http://svgjs.dev/svgjs" width="1500" height="935" viewBox="0 0 1500 935"><g transform="matrix(1,0,0,1,-0.9090909090909918,0.3785425101214628)"><svg viewBox="0 0 396 247" data-background-color="#2c7865" preserveAspectRatio="xMidYMid meet" height="935" width="1500" xmlns="http://www.w3.org/2000/svg" xmlns:xlink="http://www.w3.org/1999/xlink"><g id="tight-bounds" transform="matrix(1,0,0,1,0.2400000000000091,-0.09999999999999432)"><svg viewBox="0 0 395.52 247.2" height="247.2" width="395.52"><g><svg></svg></g><g><svg viewBox="0 0 395.52 247.2" height="247.2" width="395.52"><g><path d="M55.039 247.2l37.86-65.575v2.015l-36.083 62.497h281.888l-36.083-62.497v-2.015l37.86 65.575zM197.76 0l26.403 45.732-1.163 0-25.24-43.717-25.24 43.717-1.163 0z" fill="#e5dac4" fill-rule="nonzero" stroke="none" stroke-width="1" stroke-linecap="butt" stroke-linejoin="miter" stroke-miterlimit="10" stroke-dasharray="" stroke-dashoffset="0" font-family="none" font-weight="none" font-size="none" text-anchor="none" style="mix-blend-mode: normal" data-fill-palette-color="tertiary"></path></g><g transform="matrix(1,0,0,1,115.14701609372382,67.97999999999999)"><svg viewBox="0 0 165.22596781255234 111.24" height="111.24" width="165.22596781255234"><g><svg viewBox="0 0 395.52 266.2877112023638" height="111.24" width="165.22596781255234"><g transform="matrix(1,0,0,1,0,194.37686767236983)"><svg viewBox="0 0 395.52 71.91084352999398" height="71.91084352999398" width="395.52"><g id="textblocktransform"><svg viewBox="0 0 395.52 71.91084352999398" height="71.91084352999398" width="395.52" id="textblock"><g><svg viewBox="0 0 395.52 40.85852252252252" height="40.85852252252252" width="395.52"><g transform="matrix(1,0,0,1,0,0)"><svg width="395.52" viewBox="1.95 -32.9 412.57 43" height="40.85852252252252" data-palette-color="#d9edbf"><g class="wordmark-text-0" data-fill-palette-color="primary" id="text-0"><path d="M17.95-22.85L17.95-22.85Q18.35-23.05 18.95-23.2 19.55-23.35 20.2-23.35L20.2-23.35Q21.2-23.35 21.88-23.03 22.55-22.7 22.75-22.05L22.75-22.05Q24-18.45 25.03-15.38 26.05-12.3 26.98-9.43 27.9-6.55 28.85-3.5L28.85-3.5 29.05-3.5Q30-8 30.9-12.28 31.8-16.55 32.65-20.95 33.5-25.35 34.2-30.35L34.2-30.35Q34.9-30.7 35.9-30.7L35.9-30.7Q36.85-30.7 37.4-30.28 37.95-29.85 37.95-29L37.95-29Q37.95-28.05 37.68-26.13 37.4-24.2 36.93-21.63 36.45-19.05 35.83-16.18 35.2-13.3 34.5-10.43 33.8-7.55 33.1-5 32.4-2.45 31.75-0.55L31.75-0.55Q31.3-0.3 30.6-0.08 29.9 0.15 29 0.15L29 0.15Q27.9 0.15 27.15-0.2 26.4-0.55 26.15-1.15L26.15-1.15Q25.45-2.9 24.45-5.78 23.45-8.65 22.38-12.08 21.3-15.5 20.3-18.85L20.3-18.85Q19.35-15.55 18.25-12 17.15-8.45 16.13-5.4 15.1-2.35 14.3-0.5L14.3-0.5Q13.95-0.3 13.23-0.08 12.5 0.15 11.6 0.15L11.6 0.15Q10.5 0.15 9.78-0.23 9.05-0.6 8.8-1.15L8.8-1.15Q8.3-2.4 7.58-4.9 6.85-7.4 6.05-10.63 5.25-13.85 4.48-17.32 3.7-20.8 3.03-24.03 2.35-27.25 1.95-29.75L1.95-29.75Q2.3-30.1 2.9-30.4 3.5-30.7 4.2-30.7L4.2-30.7Q5.1-30.7 5.6-30.28 6.1-29.85 6.3-28.85L6.3-28.85Q6.95-25.7 7.55-22.75 8.15-19.8 8.78-16.8 9.4-13.8 10.1-10.53 10.8-7.25 11.65-3.5L11.65-3.5 11.85-3.5Q12.55-5.75 13.2-7.8 13.85-9.85 14.55-12.03 15.25-14.2 16.07-16.8 16.9-19.4 17.95-22.85ZM52.15 0.7L52.15 0.7Q47.45 0.7 44.87-1.15 42.3-3 42.3-6.5L42.3-6.5Q42.3-9.75 44.47-11.48 46.65-13.2 50.5-13.55L50.5-13.55 57.6-14.25 57.6-15.65Q57.6-18.15 56.1-19.3 54.6-20.45 52.05-20.45L52.05-20.45Q50-20.45 48.12-19.85 46.25-19.25 44.8-18.5L44.8-18.5Q44.4-18.85 44.07-19.33 43.75-19.8 43.75-20.3L43.75-20.3Q43.75-21.6 45.2-22.3L45.2-22.3Q46.55-23 48.32-23.38 50.1-23.75 52.1-23.75L52.1-23.75Q56.45-23.75 59-21.8 61.55-19.85 61.55-15.65L61.55-15.65 61.55-3.8Q61.55-2.7 61.12-2.13 60.7-1.55 59.85-1.05L59.85-1.05Q58.65-0.4 56.65 0.15 54.65 0.7 52.15 0.7ZM52.15-2.6L52.15-2.6Q54.25-2.6 55.62-3.03 57-3.45 57.6-3.85L57.6-3.85 57.6-11.1 51.4-10.45Q48.8-10.25 47.55-9.3 46.3-8.35 46.3-6.55L46.3-6.55Q46.3-4.7 47.77-3.65 49.25-2.6 52.15-2.6ZM72.85-18.8L72.85-18.8 72.85-10.9 68.85-10.9 68.85-18.5Q68.85-19.65 69.27-20.33 69.7-21 70.7-21.65L70.7-21.65Q72-22.5 74.25-23.13 76.5-23.75 79.25-23.75L79.25-23.75Q83.25-23.75 83.25-21.75L83.25-21.75Q83.25-21.25 83.1-20.83 82.95-20.4 82.7-20.1L82.7-20.1Q82.2-20.2 81.4-20.3 80.6-20.4 79.8-20.4L79.8-20.4Q77.5-20.4 75.75-19.93 74-19.45 72.85-18.8ZM68.85-1.55L68.85-13.2 72.85-12.6 72.85-0.1Q72.6 0 72.1 0.13 71.6 0.25 71 0.25L71 0.25Q69.95 0.25 69.4-0.18 68.85-0.6 68.85-1.55L68.85-1.55ZM107.94-15.25L107.94-15.25 107.94-10.15 103.94-10.15 103.94-15.05Q103.94-17.85 102.37-19.15 100.79-20.45 98.14-20.45L98.14-20.45Q96.14-20.45 94.59-19.95 93.04-19.45 91.94-18.8L91.94-18.8 91.94-10.15 87.94-10.15 87.94-18.6Q87.94-19.65 88.37-20.33 88.79-21 89.84-21.65L89.84-21.65Q91.14-22.4 93.29-23.08 95.44-23.75 98.14-23.75L98.14-23.75Q102.69-23.75 105.32-21.68 107.94-19.6 107.94-15.25ZM87.94-1.55L87.94-12.9 91.94-12.9 91.94-0.1Q91.69 0 91.19 0.13 90.69 0.25 90.09 0.25L90.09 0.25Q89.04 0.25 88.49-0.18 87.94-0.6 87.94-1.55L87.94-1.55ZM103.94-1.55L103.94-12.9 107.94-12.9 107.94-0.1Q107.69 0 107.17 0.13 106.64 0.25 106.09 0.25L106.09 0.25Q104.99 0.25 104.47-0.18 103.94-0.6 103.94-1.55L103.94-1.55ZM115.09-30.4L115.09-30.4Q115.09-31.45 115.84-32.18 116.59-32.9 117.69-32.9L117.69-32.9Q118.84-32.9 119.54-32.18 120.24-31.45 120.24-30.4L120.24-30.4Q120.24-29.35 119.54-28.63 118.84-27.9 117.69-27.9L117.69-27.9Q116.59-27.9 115.84-28.63 115.09-29.35 115.09-30.4ZM115.69-1.55L115.69-13.2 119.69-13.2 119.69-0.1Q119.44 0 118.94 0.13 118.44 0.25 117.84 0.25L117.84 0.25Q116.79 0.25 116.24-0.18 115.69-0.6 115.69-1.55L115.69-1.55ZM119.69-21.5L119.69-11.25 115.69-11.25 115.69-23Q115.94-23.1 116.47-23.23 116.99-23.35 117.59-23.35L117.59-23.35Q118.64-23.35 119.17-22.93 119.69-22.5 119.69-21.5L119.69-21.5ZM147.49-15.25L147.49-15.25 147.49-10.15 143.49-10.15 143.49-15.05Q143.49-17.85 141.91-19.15 140.34-20.45 137.69-20.45L137.69-20.45Q135.69-20.45 134.14-19.95 132.59-19.45 131.49-18.8L131.49-18.8 131.49-10.15 127.49-10.15 127.49-18.6Q127.49-19.65 127.91-20.33 128.34-21 129.39-21.65L129.39-21.65Q130.69-22.4 132.84-23.08 134.99-23.75 137.69-23.75L137.69-23.75Q142.24-23.75 144.86-21.68 147.49-19.6 147.49-15.25ZM127.49-1.55L127.49-12.9 131.49-12.9 131.49-0.1Q131.24 0 130.74 0.13 130.24 0.25 129.64 0.25L129.64 0.25Q128.59 0.25 128.04-0.18 127.49-0.6 127.49-1.55L127.49-1.55ZM143.49-1.55L143.49-12.9 147.49-12.9 147.49-0.1Q147.24 0 146.71 0.13 146.19 0.25 145.64 0.25L145.64 0.25Q144.54 0.25 144.01-0.18 143.49-0.6 143.49-1.55L143.49-1.55ZM164.59-0.7L164.59-0.7Q161.69-0.7 159.24-1.83 156.79-2.95 155.29-5.5 153.79-8.05 153.79-12.25L153.79-12.25Q153.79-16.05 155.26-18.6 156.74-21.15 159.34-22.45 161.94-23.75 165.29-23.75L165.29-23.75Q167.59-23.75 169.51-23.18 171.44-22.6 172.74-21.75L172.74-21.75Q173.49-21.25 173.96-20.63 174.44-20 174.44-19.1L174.44-19.1 174.44-3.65 170.44-3.65 170.44-19.05Q169.59-19.6 168.31-20.03 167.04-20.45 165.29-20.45L165.29-20.45Q161.94-20.45 159.89-18.4 157.84-16.35 157.84-12.3L157.84-12.3Q157.84-7.8 159.91-5.9 161.99-4 165.04-4L165.04-4Q167.24-4 168.59-4.75 169.94-5.5 170.74-6.4L170.74-6.4 170.94-2.85Q170.19-2.05 168.56-1.38 166.94-0.7 164.59-0.7ZM170.44 0.75L170.44 0.75 170.44-4.5 174.44-4.5 174.44 1Q174.44 4.3 173.01 6.3 171.59 8.3 169.11 9.2 166.64 10.1 163.54 10.1L163.54 10.1Q161.04 10.1 159.24 9.55 157.44 9 156.79 8.65L156.79 8.65Q155.29 7.8 155.29 6.5L155.29 6.5Q155.29 5.8 155.61 5.33 155.94 4.85 156.44 4.6L156.44 4.6Q157.49 5.4 159.41 6.08 161.34 6.75 163.54 6.75L163.54 6.75Q166.89 6.75 168.66 5.3 170.44 3.85 170.44 0.75Z" fill="#d9edbf" data-fill-palette-color="primary"></path><path d="M210.19-15.55L210.19-15.55Q210.19-9.3 207.19-6.08 204.19-2.85 198.34-2.85L198.34-2.85Q196.89-2.85 195.51-2.95 194.14-3.05 192.94-3.35L192.94-3.35 192.94-27.15Q193.94-27.35 195.14-27.45 196.34-27.55 197.89-27.55L197.89-27.55Q201.29-27.55 204.06-26.33 206.84-25.1 208.51-22.48 210.19-19.85 210.19-15.55ZM214.34-15.55L214.34-15.55Q214.34-20.7 212.26-24.1 210.19-27.5 206.51-29.23 202.84-30.95 197.94-30.95L197.94-30.95Q195.99-30.95 194.04-30.8 192.09-30.65 190.54-30.15L190.54-30.15Q189.74-29.9 189.31-29.48 188.89-29.05 188.89-28.25L188.89-28.25 188.89-2.55Q188.89-0.9 190.99-0.25L190.99-0.25Q192.79 0.3 194.81 0.43 196.84 0.55 198.39 0.55L198.39 0.55Q203.24 0.55 206.81-1.2 210.39-2.95 212.36-6.53 214.34-10.1 214.34-15.55ZM229.04 0.7L229.04 0.7Q224.34 0.7 221.76-1.15 219.19-3 219.19-6.5L219.19-6.5Q219.19-9.75 221.36-11.48 223.54-13.2 227.39-13.55L227.39-13.55 234.49-14.25 234.49-15.65Q234.49-18.15 232.99-19.3 231.49-20.45 228.94-20.45L228.94-20.45Q226.89-20.45 225.01-19.85 223.14-19.25 221.69-18.5L221.69-18.5Q221.29-18.85 220.96-19.33 220.64-19.8 220.64-20.3L220.64-20.3Q220.64-21.6 222.09-22.3L222.09-22.3Q223.44-23 225.21-23.38 226.99-23.75 228.99-23.75L228.99-23.75Q233.34-23.75 235.89-21.8 238.44-19.85 238.44-15.65L238.44-15.65 238.44-3.8Q238.44-2.7 238.01-2.13 237.59-1.55 236.74-1.05L236.74-1.05Q235.54-0.4 233.54 0.15 231.54 0.7 229.04 0.7ZM229.04-2.6L229.04-2.6Q231.14-2.6 232.51-3.03 233.89-3.45 234.49-3.85L234.49-3.85 234.49-11.1 228.29-10.45Q225.69-10.25 224.44-9.3 223.19-8.35 223.19-6.55L223.19-6.55Q223.19-4.7 224.66-3.65 226.14-2.6 229.04-2.6ZM262.03-6.15L262.03-6.15Q262.03-2.95 259.68-1.15 257.33 0.65 252.88 0.65L252.88 0.65Q249.08 0.65 246.68-0.53 244.28-1.7 244.28-3.1L244.28-3.1Q244.28-3.7 244.61-4.28 244.93-4.85 245.58-5.2L245.58-5.2Q246.93-4.25 248.73-3.45 250.53-2.65 252.83-2.65L252.83-2.65Q258.03-2.65 258.03-6.15L258.03-6.15Q258.03-7.6 257.16-8.53 256.28-9.45 254.58-9.85L254.58-9.85 250.43-10.95Q247.38-11.7 245.98-13.28 244.58-14.85 244.58-17.2L244.58-17.2Q244.58-19.85 246.73-21.8 248.88-23.75 253.28-23.75L253.28-23.75Q255.63-23.75 257.38-23.28 259.13-22.8 260.11-22.03 261.08-21.25 261.08-20.35L261.08-20.35Q261.08-19.7 260.76-19.2 260.43-18.7 259.88-18.45L259.88-18.45Q259.28-18.85 258.36-19.33 257.43-19.8 256.18-20.13 254.93-20.45 253.43-20.45L253.43-20.45Q251.23-20.45 249.88-19.6 248.53-18.75 248.53-17.2L248.53-17.2Q248.53-16.1 249.31-15.28 250.08-14.45 251.78-14.05L251.78-14.05 255.23-13.2Q258.63-12.4 260.33-10.68 262.03-8.95 262.03-6.15ZM288.13-14.65L288.13-9.95 284.13-9.95 284.13-14.55Q284.13-17.55 282.46-19 280.78-20.45 278.13-20.45L278.13-20.45Q276.18-20.45 274.51-19.7 272.83-18.95 271.68-17.9L271.68-17.9 270.93-21.15Q272.13-22 274.11-22.88 276.08-23.75 278.68-23.75L278.68-23.75Q282.83-23.75 285.48-21.5 288.13-19.25 288.13-14.65L288.13-14.65ZM268.18-1.55L268.18-13.2 272.18-13.2 272.18-0.1Q271.93 0 271.43 0.13 270.93 0.25 270.33 0.25L270.33 0.25Q269.28 0.25 268.73-0.18 268.18-0.6 268.18-1.55L268.18-1.55ZM284.13-1.55L284.13-13.15 288.13-13.1 288.13-0.1Q287.88 0 287.36 0.13 286.83 0.25 286.28 0.25L286.28 0.25Q285.18 0.25 284.66-0.18 284.13-0.6 284.13-1.55L284.13-1.55ZM272.18-30.95L272.18-11.25 268.18-11.25 268.18-32.4Q268.43-32.5 268.96-32.63 269.48-32.75 270.08-32.75L270.08-32.75Q271.13-32.75 271.66-32.33 272.18-31.9 272.18-30.95L272.18-30.95ZM305.93-23.75L305.93-23.75Q309.03-23.75 311.5-22.43 313.98-21.1 315.4-18.4 316.83-15.7 316.83-11.55L316.83-11.55Q316.83-7.35 315.35-4.65 313.88-1.95 311.28-0.65 308.68 0.65 305.23 0.65L305.23 0.65Q302.78 0.65 300.8 0.05 298.83-0.55 297.58-1.25L297.58-1.25Q296.53-1.95 296.13-2.55 295.73-3.15 295.73-4.2L295.73-4.2 295.73-20.85 299.73-20.85 299.73-4.2Q300.48-3.65 301.93-3.15 303.38-2.65 305.23-2.65L305.23-2.65Q308.63-2.65 310.7-4.8 312.78-6.95 312.78-11.55L312.78-11.55Q312.78-16.2 310.68-18.32 308.58-20.45 305.33-20.45L305.33-20.45Q303.33-20.45 301.78-19.68 300.23-18.9 299.23-17.9L299.23-17.9 298.48-21.15Q299.58-22 301.43-22.88 303.28-23.75 305.93-23.75ZM299.73-30.95L299.73-20.05 295.73-20.05 295.73-32.4Q295.98-32.5 296.5-32.63 297.03-32.75 297.63-32.75L297.63-32.75Q298.68-32.75 299.2-32.33 299.73-31.9 299.73-30.95L299.73-30.95ZM344.53-11.55L344.53-11.55Q344.53-7.85 343.13-5.1 341.73-2.35 339.18-0.85 336.63 0.65 333.18 0.65L333.18 0.65Q329.73 0.65 327.15-0.85 324.58-2.35 323.18-5.1 321.78-7.85 321.78-11.55L321.78-11.55Q321.78-15.3 323.2-18.03 324.63-20.75 327.2-22.25 329.78-23.75 333.18-23.75L333.18-23.75Q336.58-23.75 339.13-22.25 341.68-20.75 343.1-18.03 344.53-15.3 344.53-11.55ZM333.18-20.45L333.18-20.45Q329.83-20.45 327.85-18.07 325.88-15.7 325.88-11.55L325.88-11.55Q325.88-7.35 327.8-5 329.73-2.65 333.18-2.65L333.18-2.65Q336.58-2.65 338.5-5.03 340.43-7.4 340.43-11.55L340.43-11.55Q340.43-15.7 338.5-18.07 336.58-20.45 333.18-20.45ZM358.97 0.7L358.97 0.7Q354.27 0.7 351.7-1.15 349.12-3 349.12-6.5L349.12-6.5Q349.12-9.75 351.3-11.48 353.47-13.2 357.32-13.55L357.32-13.55 364.42-14.25 364.42-15.65Q364.42-18.15 362.92-19.3 361.42-20.45 358.87-20.45L358.87-20.45Q356.82-20.45 354.95-19.85 353.07-19.25 351.62-18.5L351.62-18.5Q351.22-18.85 350.9-19.33 350.57-19.8 350.57-20.3L350.57-20.3Q350.57-21.6 352.02-22.3L352.02-22.3Q353.37-23 355.15-23.38 356.92-23.75 358.92-23.75L358.92-23.75Q363.27-23.75 365.82-21.8 368.37-19.85 368.37-15.65L368.37-15.65 368.37-3.8Q368.37-2.7 367.95-2.13 367.52-1.55 366.67-1.05L366.67-1.05Q365.47-0.4 363.47 0.15 361.47 0.7 358.97 0.7ZM358.97-2.6L358.97-2.6Q361.07-2.6 362.45-3.03 363.82-3.45 364.42-3.85L364.42-3.85 364.42-11.1 358.22-10.45Q355.62-10.25 354.37-9.3 353.12-8.35 353.12-6.55L353.12-6.55Q353.12-4.7 354.6-3.65 356.07-2.6 358.97-2.6ZM379.67-18.8L379.67-18.8 379.67-10.9 375.67-10.9 375.67-18.5Q375.67-19.65 376.1-20.33 376.52-21 377.52-21.65L377.52-21.65Q378.82-22.5 381.07-23.13 383.32-23.75 386.07-23.75L386.07-23.75Q390.07-23.75 390.07-21.75L390.07-21.75Q390.07-21.25 389.92-20.83 389.77-20.4 389.52-20.1L389.52-20.1Q389.02-20.2 388.22-20.3 387.42-20.4 386.62-20.4L386.62-20.4Q384.32-20.4 382.57-19.93 380.82-19.45 379.67-18.8ZM375.67-1.55L375.67-13.2 379.67-12.6 379.67-0.1Q379.42 0 378.92 0.13 378.42 0.25 377.82 0.25L377.82 0.25Q376.77 0.25 376.22-0.18 375.67-0.6 375.67-1.55L375.67-1.55ZM410.52-3.95L410.52-3.95 410.52-20.75 414.52-20.8 414.52-3.8Q414.52-2.85 414.09-2.27 413.67-1.7 412.77-1.15L412.77-1.15Q411.77-0.5 409.92 0.08 408.07 0.65 405.67 0.65L405.67 0.65Q402.07 0.65 399.32-0.6 396.57-1.85 395.02-4.53 393.47-7.2 393.47-11.45L393.47-11.45Q393.47-15.8 394.99-18.5 396.52-21.2 399.12-22.48 401.72-23.75 404.82-23.75L404.82-23.75Q406.77-23.75 408.52-23.2 410.27-22.65 411.27-21.85L411.27-21.85 411.27-18.15Q410.32-19.1 408.79-19.78 407.27-20.45 405.22-20.45L405.22-20.45Q403.17-20.45 401.42-19.58 399.67-18.7 398.62-16.7 397.57-14.7 397.57-11.35L397.57-11.35Q397.57-6.8 399.77-4.73 401.97-2.65 405.62-2.65L405.62-2.65Q407.37-2.65 408.49-3.03 409.62-3.4 410.52-3.95ZM414.52-30.95L414.52-19.8 410.52-19.75 410.52-32.4Q410.77-32.5 411.29-32.63 411.82-32.75 412.37-32.75L412.37-32.75Q413.47-32.75 413.99-32.33 414.52-31.9 414.52-30.95L414.52-30.95Z" fill="#90d26d" data-fill-palette-color="accent"></path></g></svg></g></svg></g><g transform="matrix(1,0,0,1,75.54432,50.50423908554954)"><svg viewBox="0 0 244.43135999999998 21.40660444444444" height="21.40660444444444" width="244.43135999999998"><g transform="matrix(1,0,0,1,0,0)"><svg width="244.43135999999998" viewBox="2.6 -35.4 518.35 45.4" height="21.40660444444444" data-palette-color="#d9edbf"><path d="M14.8 0.4Q9.15 0.4 5.88-2.15 2.6-4.7 2.6-8.95L2.6-8.95 2.6-10.5Q2.6-11 3.1-11L3.1-11 5.55-11Q6.05-11 6.05-10.5L6.05-10.5 6.05-9.15Q6.05-6.25 8.45-4.48 10.85-2.7 15.1-2.7L15.1-2.7Q18.95-2.7 20.95-4.33 22.95-5.95 22.95-8.65L22.95-8.65Q22.95-10.4 22.03-11.65 21.1-12.9 19.18-14 17.25-15.1 13.75-16.55L13.75-16.55Q10-18.05 7.93-19.18 5.85-20.3 4.58-22.08 3.3-23.85 3.3-26.55L3.3-26.55Q3.3-30.75 6.23-33.08 9.15-35.4 14.25-35.4L14.25-35.4Q19.8-35.4 23-32.8 26.2-30.2 26.2-25.9L26.2-25.9 26.2-24.8Q26.2-24.3 25.7-24.3L25.7-24.3 23.2-24.3Q22.7-24.3 22.7-24.8L22.7-24.8 22.7-25.7Q22.7-28.6 20.43-30.45 18.15-32.3 14.1-32.3L14.1-32.3Q10.55-32.3 8.65-30.85 6.75-29.4 6.75-26.65L6.75-26.65Q6.75-24.85 7.68-23.68 8.6-22.5 10.33-21.63 12.05-20.75 15.65-19.35L15.65-19.35Q19.3-17.85 21.53-16.55 23.75-15.25 25.13-13.38 26.5-11.5 26.5-8.8L26.5-8.8Q26.5-4.6 23.4-2.1 20.3 0.4 14.8 0.4L14.8 0.4ZM44.55-22.85Q44.55-22.35 44.05-22.35L44.05-22.35 38.4-22.35Q38.2-22.35 38.2-22.15L38.2-22.15 38.2-7.4Q38.2-5 39.27-4.03 40.35-3.05 42.65-3.05L42.65-3.05 43.9-3.05Q44.4-3.05 44.4-2.55L44.4-2.55 44.4-0.5Q44.4 0 43.9 0L43.9 0Q43.3 0.05 42.05 0.05L42.05 0.05Q38.45 0.05 36.6-1.3 34.75-2.65 34.75-6.3L34.75-6.3 34.75-22.15Q34.75-22.35 34.55-22.35L34.55-22.35 31.5-22.35Q31-22.35 31-22.85L31-22.85 31-24.8Q31-25.3 31.5-25.3L31.5-25.3 34.55-25.3Q34.75-25.3 34.75-25.5L34.75-25.5 34.75-31.3Q34.75-31.8 35.25-31.8L35.25-31.8 37.7-31.8Q38.2-31.8 38.2-31.3L38.2-31.3 38.2-25.5Q38.2-25.3 38.4-25.3L38.4-25.3 44.05-25.3Q44.55-25.3 44.55-24.8L44.55-24.8 44.55-22.85ZM60.15-25.7Q64.65-25.7 67.09-23.4 69.55-21.1 69.55-17.3L69.55-17.3 69.55-0.5Q69.55 0 69.05 0L69.05 0 66.5 0Q66 0 66-0.5L66-0.5 66-2.55Q66-2.65 65.92-2.7 65.84-2.75 65.75-2.65L65.75-2.65Q64.5-1.15 62.5-0.38 60.5 0.4 58.05 0.4L58.05 0.4Q54.5 0.4 52.1-1.4 49.7-3.2 49.7-6.9L49.7-6.9Q49.7-10.65 52.42-12.83 55.15-15 60-15L60-15 65.8-15Q66-15 66-15.2L66-15.2 66-17.1Q66-19.65 64.57-21.13 63.15-22.6 60.15-22.6L60.15-22.6Q57.75-22.6 56.25-21.68 54.75-20.75 54.4-19.1L54.4-19.1Q54.25-18.6 53.8-18.65L53.8-18.65 51.1-19Q50.55-19.1 50.65-19.4L50.65-19.4Q51.05-22.2 53.65-23.95 56.25-25.7 60.15-25.7L60.15-25.7ZM58.75-2.65Q61.7-2.65 63.84-4.13 66-5.6 66-8.1L66-8.1 66-12Q66-12.2 65.8-12.2L65.8-12.2 60.55-12.2Q57.25-12.2 55.25-10.85 53.25-9.5 53.25-7.1L53.25-7.1Q53.25-4.9 54.77-3.78 56.3-2.65 58.75-2.65L58.75-2.65ZM75.49 10Q75.14 10 75.14 9.5L75.14 9.5 75.14 7.5Q75.14 7 75.64 7L75.64 7 75.84 7Q77.79 6.95 78.87 6.43 79.94 5.9 80.72 4.48 81.49 3.05 82.39 0.15L82.39 0.15Q82.49-0.05 82.39-0.15L82.39-0.15 73.94-24.75 73.89-24.95Q73.89-25.3 74.34-25.3L74.34-25.3 76.99-25.3Q77.44-25.3 77.59-24.9L77.59-24.9 84.09-4.7Q84.14-4.6 84.24-4.6 84.34-4.6 84.39-4.7L84.39-4.7 90.79-24.9Q90.94-25.3 91.39-25.3L91.39-25.3 93.99-25.3Q94.54-25.3 94.39-24.75L94.39-24.75 85.14 2.2Q83.94 5.55 82.89 7.15 81.84 8.75 80.27 9.38 78.69 10 75.84 10L75.84 10 75.49 10ZM131.14 0Q130.69 0 130.54-0.4L130.54-0.4 128.54-6.7Q128.49-6.85 128.34-6.85L128.34-6.85 113.39-6.85Q113.24-6.85 113.19-6.7L113.19-6.7 111.19-0.4Q111.04 0 110.59 0L110.59 0 107.89 0Q107.34 0 107.49-0.55L107.49-0.55 118.54-34.6Q118.69-35 119.14-35L119.14-35 122.54-35Q122.99-35 123.14-34.6L123.14-34.6 134.24-0.55 134.29-0.35Q134.29 0 133.84 0L133.84 0 131.14 0ZM114.19-10Q114.14-9.9 114.21-9.83 114.29-9.75 114.39-9.75L114.39-9.75 127.29-9.75Q127.39-9.75 127.46-9.83 127.54-9.9 127.49-10L127.49-10 120.99-30.4Q120.94-30.5 120.84-30.5 120.74-30.5 120.69-30.4L120.69-30.4 114.19-10ZM150.54-25.65Q154.54-25.65 156.91-23.3 159.29-20.95 159.29-17L159.29-17 159.29-0.5Q159.29 0 158.79 0L158.79 0 156.24 0Q155.74 0 155.74-0.5L155.74-0.5 155.74-16.3Q155.74-19.05 154.06-20.8 152.39-22.55 149.74-22.55L149.74-22.55Q146.99-22.55 145.29-20.85 143.59-19.15 143.59-16.4L143.59-16.4 143.59-0.5Q143.59 0 143.09 0L143.09 0 140.54 0Q140.04 0 140.04-0.5L140.04-0.5 140.04-34.5Q140.04-35 140.54-35L140.54-35 143.09-35Q143.59-35 143.59-34.5L143.59-34.5 143.59-22.65Q143.59-22.55 143.66-22.5 143.74-22.45 143.79-22.55L143.79-22.55Q145.99-25.65 150.54-25.65L150.54-25.65ZM186.03-16.9Q186.23-15.5 186.23-13.4L186.23-13.4 186.23-11.8Q186.23-11.3 185.73-11.3L185.73-11.3 169.58-11.3Q169.38-11.3 169.38-11.1L169.38-11.1Q169.48-8.35 169.68-7.55L169.68-7.55Q170.23-5.3 172.03-4 173.83-2.7 176.63-2.7L176.63-2.7Q178.73-2.7 180.33-3.65 181.93-4.6 182.83-6.35L182.83-6.35Q183.13-6.8 183.53-6.55L183.53-6.55 185.48-5.4Q185.88-5.15 185.68-4.7L185.68-4.7Q184.43-2.3 181.93-0.93 179.43 0.45 176.18 0.45L176.18 0.45Q172.63 0.4 170.23-1.25 167.83-2.9 166.78-5.85L166.78-5.85Q165.88-8.25 165.88-12.75L165.88-12.75Q165.88-14.85 165.96-16.18 166.03-17.5 166.33-18.55L166.33-18.55Q167.18-21.8 169.76-23.75 172.33-25.7 175.98-25.7L175.98-25.7Q180.53-25.7 182.98-23.4 185.43-21.1 186.03-16.9L186.03-16.9ZM175.98-22.6Q173.53-22.6 171.91-21.33 170.28-20.05 169.78-17.9L169.78-17.9Q169.48-16.85 169.38-14.5L169.38-14.5Q169.38-14.3 169.58-14.3L169.58-14.3 182.53-14.3Q182.73-14.3 182.73-14.5L182.73-14.5Q182.63-16.75 182.43-17.7L182.43-17.7Q181.88-19.95 180.21-21.28 178.53-22.6 175.98-22.6L175.98-22.6ZM201.78-25.7Q206.28-25.7 208.73-23.4 211.18-21.1 211.18-17.3L211.18-17.3 211.18-0.5Q211.18 0 210.68 0L210.68 0 208.13 0Q207.63 0 207.63-0.5L207.63-0.5 207.63-2.55Q207.63-2.65 207.56-2.7 207.48-2.75 207.38-2.65L207.38-2.65Q206.13-1.15 204.13-0.38 202.13 0.4 199.68 0.4L199.68 0.4Q196.13 0.4 193.73-1.4 191.33-3.2 191.33-6.9L191.33-6.9Q191.33-10.65 194.06-12.83 196.78-15 201.63-15L201.63-15 207.43-15Q207.63-15 207.63-15.2L207.63-15.2 207.63-17.1Q207.63-19.65 206.21-21.13 204.78-22.6 201.78-22.6L201.78-22.6Q199.38-22.6 197.88-21.68 196.38-20.75 196.03-19.1L196.03-19.1Q195.88-18.6 195.43-18.65L195.43-18.65 192.73-19Q192.18-19.1 192.28-19.4L192.28-19.4Q192.68-22.2 195.28-23.95 197.88-25.7 201.78-25.7L201.78-25.7ZM200.38-2.65Q203.33-2.65 205.48-4.13 207.63-5.6 207.63-8.1L207.63-8.1 207.63-12Q207.63-12.2 207.43-12.2L207.43-12.2 202.18-12.2Q198.88-12.2 196.88-10.85 194.88-9.5 194.88-7.1L194.88-7.1Q194.88-4.9 196.41-3.78 197.93-2.65 200.38-2.65L200.38-2.65ZM234.28-34.5Q234.28-35 234.78-35L234.78-35 237.33-35Q237.83-35 237.83-34.5L237.83-34.5 237.83-0.5Q237.83 0 237.33 0L237.33 0 234.78 0Q234.28 0 234.28-0.5L234.28-0.5 234.28-2.6Q234.28-2.7 234.2-2.73 234.13-2.75 234.03-2.65L234.03-2.65Q232.93-1.2 231.3-0.4 229.68 0.4 227.68 0.4L227.68 0.4Q224.18 0.4 221.8-1.4 219.43-3.2 218.53-6.3L218.53-6.3Q217.83-8.55 217.83-12.65L217.83-12.65Q217.83-16.8 218.43-18.85L218.43-18.85Q219.33-22.05 221.73-23.88 224.13-25.7 227.68-25.7L227.68-25.7Q229.63-25.7 231.28-24.93 232.93-24.15 234.03-22.7L234.03-22.7Q234.13-22.6 234.2-22.63 234.28-22.65 234.28-22.75L234.28-22.75 234.28-34.5ZM233.38-6.55Q233.83-7.55 234.03-8.9 234.23-10.25 234.23-12.65L234.23-12.65Q234.23-15.05 234.03-16.43 233.83-17.8 233.33-18.85L233.33-18.85Q232.73-20.55 231.35-21.58 229.98-22.6 228.08-22.6L228.08-22.6Q226.08-22.6 224.63-21.6 223.18-20.6 222.53-18.95L222.53-18.95Q221.93-17.85 221.65-16.48 221.38-15.1 221.38-12.65L221.38-12.65Q221.38-10.3 221.58-8.97 221.78-7.65 222.28-6.6L222.28-6.6Q222.88-4.8 224.4-3.75 225.93-2.7 228.03-2.7L228.03-2.7Q230.03-2.7 231.38-3.75 232.73-4.8 233.38-6.55L233.38-6.55ZM245.68 3.95Q245.43 3.95 245.3 3.8 245.18 3.65 245.23 3.4L245.23 3.4 247.43-7.3Q247.53-7.75 247.98-7.75L247.98-7.75 250.18-7.75Q250.43-7.75 250.55-7.6 250.68-7.45 250.63-7.2L250.63-7.2 247.83 3.5Q247.73 3.95 247.28 3.95L247.28 3.95 245.68 3.95ZM279.87 0.4Q274.22 0.4 270.95-2.15 267.67-4.7 267.67-8.95L267.67-8.95 267.67-10.5Q267.67-11 268.17-11L268.17-11 270.62-11Q271.12-11 271.12-10.5L271.12-10.5 271.12-9.15Q271.12-6.25 273.52-4.48 275.92-2.7 280.17-2.7L280.17-2.7Q284.02-2.7 286.02-4.33 288.02-5.95 288.02-8.65L288.02-8.65Q288.02-10.4 287.1-11.65 286.17-12.9 284.25-14 282.32-15.1 278.82-16.55L278.82-16.55Q275.07-18.05 273-19.18 270.92-20.3 269.65-22.08 268.37-23.85 268.37-26.55L268.37-26.55Q268.37-30.75 271.3-33.08 274.22-35.4 279.32-35.4L279.32-35.4Q284.87-35.4 288.07-32.8 291.27-30.2 291.27-25.9L291.27-25.9 291.27-24.8Q291.27-24.3 290.77-24.3L290.77-24.3 288.27-24.3Q287.77-24.3 287.77-24.8L287.77-24.8 287.77-25.7Q287.77-28.6 285.5-30.45 283.22-32.3 279.17-32.3L279.17-32.3Q275.62-32.3 273.72-30.85 271.82-29.4 271.82-26.65L271.82-26.65Q271.82-24.85 272.75-23.68 273.67-22.5 275.4-21.63 277.12-20.75 280.72-19.35L280.72-19.35Q284.37-17.85 286.6-16.55 288.82-15.25 290.2-13.38 291.57-11.5 291.57-8.8L291.57-8.8Q291.57-4.6 288.47-2.1 285.37 0.4 279.87 0.4L279.87 0.4ZM309.62-22.85Q309.62-22.35 309.12-22.35L309.12-22.35 303.47-22.35Q303.27-22.35 303.27-22.15L303.27-22.15 303.27-7.4Q303.27-5 304.34-4.03 305.42-3.05 307.72-3.05L307.72-3.05 308.97-3.05Q309.47-3.05 309.47-2.55L309.47-2.55 309.47-0.5Q309.47 0 308.97 0L308.97 0Q308.37 0.05 307.12 0.05L307.12 0.05Q303.52 0.05 301.67-1.3 299.82-2.65 299.82-6.3L299.82-6.3 299.82-22.15Q299.82-22.35 299.62-22.35L299.62-22.35 296.57-22.35Q296.07-22.35 296.07-22.85L296.07-22.85 296.07-24.8Q296.07-25.3 296.57-25.3L296.57-25.3 299.62-25.3Q299.82-25.3 299.82-25.5L299.82-25.5 299.82-31.3Q299.82-31.8 300.32-31.8L300.32-31.8 302.77-31.8Q303.27-31.8 303.27-31.3L303.27-31.3 303.27-25.5Q303.27-25.3 303.47-25.3L303.47-25.3 309.12-25.3Q309.62-25.3 309.62-24.8L309.62-24.8 309.62-22.85ZM325.22-25.7Q329.72-25.7 332.17-23.4 334.62-21.1 334.62-17.3L334.62-17.3 334.62-0.5Q334.62 0 334.12 0L334.12 0 331.57 0Q331.07 0 331.07-0.5L331.07-0.5 331.07-2.55Q331.07-2.65 330.99-2.7 330.92-2.75 330.82-2.65L330.82-2.65Q329.57-1.15 327.57-0.38 325.57 0.4 323.12 0.4L323.12 0.4Q319.57 0.4 317.17-1.4 314.77-3.2 314.77-6.9L314.77-6.9Q314.77-10.65 317.49-12.83 320.22-15 325.07-15L325.07-15 330.87-15Q331.07-15 331.07-15.2L331.07-15.2 331.07-17.1Q331.07-19.65 329.64-21.13 328.22-22.6 325.22-22.6L325.22-22.6Q322.82-22.6 321.32-21.68 319.82-20.75 319.47-19.1L319.47-19.1Q319.32-18.6 318.87-18.65L318.87-18.65 316.17-19Q315.62-19.1 315.72-19.4L315.72-19.4Q316.12-22.2 318.72-23.95 321.32-25.7 325.22-25.7L325.22-25.7ZM323.82-2.65Q326.77-2.65 328.92-4.13 331.07-5.6 331.07-8.1L331.07-8.1 331.07-12Q331.07-12.2 330.87-12.2L330.87-12.2 325.62-12.2Q322.32-12.2 320.32-10.85 318.32-9.5 318.32-7.1L318.32-7.1Q318.32-4.9 319.84-3.78 321.37-2.65 323.82-2.65L323.82-2.65ZM340.56 10Q340.21 10 340.21 9.5L340.21 9.5 340.21 7.5Q340.21 7 340.71 7L340.71 7 340.91 7Q342.86 6.95 343.94 6.43 345.01 5.9 345.79 4.48 346.56 3.05 347.46 0.15L347.46 0.15Q347.56-0.05 347.46-0.15L347.46-0.15 339.01-24.75 338.96-24.95Q338.96-25.3 339.41-25.3L339.41-25.3 342.06-25.3Q342.51-25.3 342.66-24.9L342.66-24.9 349.16-4.7Q349.21-4.6 349.31-4.6 349.41-4.6 349.46-4.7L349.46-4.7 355.86-24.9Q356.01-25.3 356.46-25.3L356.46-25.3 359.06-25.3Q359.61-25.3 359.46-24.75L359.46-24.75 350.21 2.2Q349.01 5.55 347.96 7.15 346.91 8.75 345.34 9.38 343.76 10 340.91 10L340.91 10 340.56 10ZM385.56 0.4Q379.91 0.4 376.63-2.15 373.36-4.7 373.36-8.95L373.36-8.95 373.36-10.5Q373.36-11 373.86-11L373.86-11 376.31-11Q376.81-11 376.81-10.5L376.81-10.5 376.81-9.15Q376.81-6.25 379.21-4.48 381.61-2.7 385.86-2.7L385.86-2.7Q389.71-2.7 391.71-4.33 393.71-5.95 393.71-8.65L393.71-8.65Q393.71-10.4 392.78-11.65 391.86-12.9 389.93-14 388.01-15.1 384.51-16.55L384.51-16.55Q380.76-18.05 378.68-19.18 376.61-20.3 375.33-22.08 374.06-23.85 374.06-26.55L374.06-26.55Q374.06-30.75 376.98-33.08 379.91-35.4 385.01-35.4L385.01-35.4Q390.56-35.4 393.76-32.8 396.96-30.2 396.96-25.9L396.96-25.9 396.96-24.8Q396.96-24.3 396.46-24.3L396.46-24.3 393.96-24.3Q393.46-24.3 393.46-24.8L393.46-24.8 393.46-25.7Q393.46-28.6 391.18-30.45 388.91-32.3 384.86-32.3L384.86-32.3Q381.31-32.3 379.41-30.85 377.51-29.4 377.51-26.65L377.51-26.65Q377.51-24.85 378.43-23.68 379.36-22.5 381.08-21.63 382.81-20.75 386.41-19.35L386.41-19.35Q390.06-17.85 392.28-16.55 394.51-15.25 395.88-13.38 397.26-11.5 397.26-8.8L397.26-8.8Q397.26-4.6 394.16-2.1 391.06 0.4 385.56 0.4L385.56 0.4ZM423.36-16.9Q423.56-15.5 423.56-13.4L423.56-13.4 423.56-11.8Q423.56-11.3 423.06-11.3L423.06-11.3 406.91-11.3Q406.71-11.3 406.71-11.1L406.71-11.1Q406.81-8.35 407.01-7.55L407.01-7.55Q407.56-5.3 409.36-4 411.16-2.7 413.96-2.7L413.96-2.7Q416.06-2.7 417.66-3.65 419.26-4.6 420.16-6.35L420.16-6.35Q420.46-6.8 420.86-6.55L420.86-6.55 422.81-5.4Q423.21-5.15 423.01-4.7L423.01-4.7Q421.76-2.3 419.26-0.93 416.76 0.45 413.51 0.45L413.51 0.45Q409.96 0.4 407.56-1.25 405.16-2.9 404.11-5.85L404.11-5.85Q403.21-8.25 403.21-12.75L403.21-12.75Q403.21-14.85 403.28-16.18 403.36-17.5 403.66-18.55L403.66-18.55Q404.51-21.8 407.08-23.75 409.66-25.7 413.31-25.7L413.31-25.7Q417.86-25.7 420.31-23.4 422.76-21.1 423.36-16.9L423.36-16.9ZM413.31-22.6Q410.86-22.6 409.23-21.33 407.61-20.05 407.11-17.9L407.11-17.9Q406.81-16.85 406.71-14.5L406.71-14.5Q406.71-14.3 406.91-14.3L406.91-14.3 419.86-14.3Q420.06-14.3 420.06-14.5L420.06-14.5Q419.96-16.75 419.76-17.7L419.76-17.7Q419.21-19.95 417.53-21.28 415.86-22.6 413.31-22.6L413.31-22.6ZM440.15 0.4Q436.55 0.4 433.98-1.48 431.4-3.35 430.45-6.55L430.45-6.55Q429.8-8.75 429.8-12.75L429.8-12.75Q429.8-16.35 430.45-18.85L430.45-18.85Q431.35-21.95 433.95-23.83 436.55-25.7 440.15-25.7L440.15-25.7Q443.8-25.7 446.48-23.85 449.15-22 449.95-19.25L449.95-19.25Q450.2-18.35 450.25-17.75L450.25-17.75 450.25-17.65Q450.25-17.3 449.8-17.2L449.8-17.2 447.3-16.85 447.2-16.85Q446.85-16.85 446.75-17.3L446.75-17.3 446.6-18.05Q446.15-19.95 444.4-21.28 442.65-22.6 440.15-22.6L440.15-22.6Q437.65-22.6 435.98-21.28 434.3-19.95 433.8-17.75L433.8-17.75Q433.35-15.85 433.35-12.7L433.35-12.7Q433.35-9.4 433.8-7.6L433.8-7.6Q434.3-5.35 435.98-4.03 437.65-2.7 440.15-2.7L440.15-2.7Q442.6-2.7 444.38-3.98 446.15-5.25 446.6-7.25L446.6-7.25 446.6-7.45 446.65-7.65Q446.7-8.15 447.25-8.05L447.25-8.05 449.7-7.65Q450.2-7.55 450.15-7.1L450.15-7.1 449.95-6.1Q449.2-3.2 446.5-1.4 443.8 0.4 440.15 0.4L440.15 0.4ZM471.9-24.8Q471.9-25.3 472.4-25.3L472.4-25.3 474.95-25.3Q475.45-25.3 475.45-24.8L475.45-24.8 475.45-0.5Q475.45 0 474.95 0L474.95 0 472.4 0Q471.9 0 471.9-0.5L471.9-0.5 471.9-2.65Q471.9-2.75 471.8-2.8 471.7-2.85 471.65-2.75L471.65-2.75Q469.55 0.35 465 0.35L465 0.35Q462.6 0.35 460.58-0.63 458.55-1.6 457.38-3.45 456.2-5.3 456.2-7.9L456.2-7.9 456.2-24.8Q456.2-25.3 456.7-25.3L456.7-25.3 459.25-25.3Q459.75-25.3 459.75-24.8L459.75-24.8 459.75-8.95Q459.75-6.1 461.35-4.42 462.95-2.75 465.7-2.75L465.7-2.75Q468.55-2.75 470.23-4.45 471.9-6.15 471.9-8.95L471.9-8.95 471.9-24.8ZM493.6-25.55Q495.25-25.55 496.45-24.9L496.45-24.9Q496.85-24.7 496.75-24.25L496.75-24.25 496.2-21.8Q496.05-21.3 495.55-21.5L495.55-21.5Q494.7-21.85 493.6-21.85L493.6-21.85 492.95-21.8Q490.35-21.7 488.65-19.88 486.95-18.05 486.95-15.25L486.95-15.25 486.95-0.5Q486.95 0 486.45 0L486.45 0 483.9 0Q483.4 0 483.4-0.5L483.4-0.5 483.4-24.8Q483.4-25.3 483.9-25.3L483.9-25.3 486.45-25.3Q486.95-25.3 486.95-24.8L486.95-24.8 486.95-21.75Q486.95-21.6 487.02-21.58 487.1-21.55 487.15-21.65L487.15-21.65Q488.2-23.5 489.82-24.53 491.45-25.55 493.6-25.55L493.6-25.55ZM520.75-16.9Q520.95-15.5 520.95-13.4L520.95-13.4 520.95-11.8Q520.95-11.3 520.45-11.3L520.45-11.3 504.3-11.3Q504.1-11.3 504.1-11.1L504.1-11.1Q504.2-8.35 504.4-7.55L504.4-7.55Q504.95-5.3 506.75-4 508.55-2.7 511.35-2.7L511.35-2.7Q513.45-2.7 515.05-3.65 516.64-4.6 517.55-6.35L517.55-6.35Q517.85-6.8 518.25-6.55L518.25-6.55 520.2-5.4Q520.6-5.15 520.39-4.7L520.39-4.7Q519.14-2.3 516.64-0.93 514.14 0.45 510.9 0.45L510.9 0.45Q507.35 0.4 504.95-1.25 502.55-2.9 501.5-5.85L501.5-5.85Q500.6-8.25 500.6-12.75L500.6-12.75Q500.6-14.85 500.67-16.18 500.75-17.5 501.05-18.55L501.05-18.55Q501.9-21.8 504.47-23.75 507.05-25.7 510.7-25.7L510.7-25.7Q515.25-25.7 517.7-23.4 520.14-21.1 520.75-16.9L520.75-16.9ZM510.7-22.6Q508.25-22.6 506.62-21.33 505-20.05 504.5-17.9L504.5-17.9Q504.2-16.85 504.1-14.5L504.1-14.5Q504.1-14.3 504.3-14.3L504.3-14.3 517.25-14.3Q517.45-14.3 517.45-14.5L517.45-14.5Q517.35-16.75 517.14-17.7L517.14-17.7Q516.6-19.95 514.92-21.28 513.25-22.6 510.7-22.6L510.7-22.6Z" opacity="1" transform="matrix(1,0,0,1,0,0)" fill="#d9edbf" class="slogan-text-1" data-fill-palette-color="secondary" id="text-1"></path></svg></g></svg></g></svg></g></svg></g><g transform="matrix(1,0,0,1,110.2172827268421,0)"><svg viewBox="0 0 175.08543454631578 175.08543454631578" height="175.08543454631578" width="175.08543454631578"><g><svg></svg></g><g id="icon-0"><svg viewBox="0 0 175.08543454631578 175.08543454631578" height="175.08543454631578" width="175.08543454631578"><g><path d="M0 87.543c0-48.349 39.194-87.543 87.543-87.543 48.349 0 87.543 39.194 87.542 87.543 0 48.349-39.194 87.543-87.542 87.542-48.349 0-87.543-39.194-87.543-87.542zM87.543 171.401c46.314 0 83.858-37.545 83.858-83.858 0-46.314-37.545-83.858-83.858-83.858-46.314 0-83.858 37.545-83.858 83.858 0 46.314 37.545 83.858 83.858 83.858z" data-fill-palette-color="accent" fill="#90d26d" stroke="transparent"></path></g><g transform="matrix(1,0,0,1,36.888072563151525,36.888072563151525)"><svg viewBox="0 0 101.30928942001273 101.30928942001273" height="101.30928942001273" width="101.30928942001273"><g><svg xmlns="http://www.w3.org/2000/svg" xmlns:xlink="http://www.w3.org/1999/xlink" version="1.1" x="0" y="0" viewBox="0 0 512 512" enable-background="new 0 0 512 512" xml:space="preserve" height="101.30928942001273" width="101.30928942001273" class="icon-cg-0" data-fill-palette-color="accent" id="cg-0"><path d="M448 448l64 32-64 32v-16H16V64H0L32 0l32 64H48v400h400V448zM192 288h-32v-96h-32v96H96v96h96V288zM288 416h32v-96h32V192h-32v-32h-32v32h-32v128h32V416zM480 96V0h-32v96h-32v192h32v64h32v-64h32V96H480z" fill="#90d26d" data-fill-palette-color="accent"></path></svg></g></svg></g></svg></g></svg></g><g></g></svg></g></svg></g></svg></g><defs></defs></svg><rect width="395.52" height="247.2" fill="none" stroke="none" visibility="hidden"></rect></g></svg></g></svg>